<?xml version="1.0" standalone="no"?>
<!DOCTYPE svg PUBLIC "-//W3C//DTD SVG 20010904//EN"
 "http://www.w3.org/TR/2001/REC-SVG-20010904/DTD/svg10.dtd">
<svg version="1.0" xmlns="http://www.w3.org/2000/svg"
 width="225.000000pt" height="225.000000pt" viewBox="0 0 225.000000 225.000000"
 preserveAspectRatio="xMidYMid meet">

<g transform="translate(0.000000,225.000000) scale(0.100000,-0.100000)"
fill="#000000" stroke="none">
<path d="M628 2082 c-269 -85 -488 -158 -488 -162 0 -3 223 -88 496 -188 l496
-183 498 183 c274 101 497 184 496 185 -4 4 -1000 323 -1006 322 -3 0 -224
-71 -492 -157z"/>
<path d="M20 1148 l0 -603 503 -266 502 -266 3 685 c1 377 1 687 -1 689 -7 7
-982 363 -994 363 -10 0 -13 -127 -13 -602z"/>
<path d="M1720 1565 l-495 -183 -3 -686 -2 -686 118 63 c65 34 292 154 505
267 l387 205 0 603 c0 331 -3 602 -7 601 -5 -1 -231 -83 -503 -184z"/>
</g>
</svg>
